<?xml version="1.0" encoding="iso-8859-1"?>
<!-- Generator: Adobe Illustrator 19.0.0, SVG Export Plug-In . SVG Version: 6.00 Build 0)  -->
<svg xmlns="http://www.w3.org/2000/svg" xmlns:xlink="http://www.w3.org/1999/xlink" version="1.1" id="Capa_1" x="0px" y="0px" viewBox="0 0 512 512" style="enable-background:new 0 0 512 512;" xml:space="preserve" width="512px" height="512px">
<g>
	<g>
		<path d="M467,0H45C20.187,0,0,20.187,0,45v422c0,24.813,20.187,45,45,45h422c24.813,0,45-20.187,45-45V45    C512,20.187,491.813,0,467,0z M482,467c0,8.271-6.729,15-15,15H45c-8.271,0-15-6.729-15-15V150h452V467z M482,120H30V45    c0-8.271,6.729-15,15-15h422c8.271,0,15,6.729,15,15V120z" fill="#FFFFFF"/>
	</g>
</g>
<g>
	<g>
		<circle cx="75" cy="75" r="15" fill="#FFFFFF"/>
	</g>
</g>
<g>
	<g>
		<circle cx="135" cy="75" r="15" fill="#FFFFFF"/>
	</g>
</g>
<g>
	<g>
		<circle cx="195" cy="75" r="15" fill="#FFFFFF"/>
	</g>
</g>
<g>
	<g>
		<path d="M225,180H75c-8.284,0-15,6.716-15,15v122c0,8.284,6.716,15,15,15h150c8.284,0,15-6.716,15-15V195    C240,186.716,233.284,180,225,180z M210,302H90v-92h120V302z" fill="#FFFFFF"/>
	</g>
</g>
<g>
	<g>
		<path d="M437,302H285c-8.284,0-15,6.716-15,15s6.716,15,15,15h152c8.284,0,15-6.716,15-15S445.284,302,437,302z" fill="#FFFFFF"/>
	</g>
</g>
<g>
	<g>
		<path d="M437,241H285c-8.284,0-15,6.716-15,15s6.716,15,15,15h152c8.284,0,15-6.716,15-15S445.284,241,437,241z" fill="#FFFFFF"/>
	</g>
</g>
<g>
	<g>
		<path d="M437,362H75c-8.284,0-15,6.716-15,15s6.716,15,15,15h362c8.284,0,15-6.716,15-15S445.284,362,437,362z" fill="#FFFFFF"/>
	</g>
</g>
<g>
	<g>
		<path d="M437,422H75c-8.284,0-15,6.716-15,15s6.716,15,15,15h362c8.284,0,15-6.716,15-15S445.284,422,437,422z" fill="#FFFFFF"/>
	</g>
</g>
<g>
</g>
<g>
</g>
<g>
</g>
<g>
</g>
<g>
</g>
<g>
</g>
<g>
</g>
<g>
</g>
<g>
</g>
<g>
</g>
<g>
</g>
<g>
</g>
<g>
</g>
<g>
</g>
<g>
</g>
</svg>
