<?xml version="1.0" encoding="utf-8"?>
<!-- Generator: Adobe Illustrator 22.0.1, SVG Export Plug-In . SVG Version: 6.00 Build 0)  -->
<svg version="1.1" id="Capa_1" xmlns="http://www.w3.org/2000/svg" xmlns:xlink="http://www.w3.org/1999/xlink" x="0px" y="0px"
	 viewBox="0 0 512 512" style="enable-background:new 0 0 512 512;" xml:space="preserve">
<style type="text/css">
	.st0{fill:#E4007D;}
</style>
<g>
	<g>
		<path class="st0" d="M467,0H45C20.2,0,0,20.2,0,45v422c0,24.8,20.2,45,45,45h422c24.8,0,45-20.2,45-45V45C512,20.2,491.8,0,467,0z
			 M482,467c0,8.3-6.7,15-15,15H45c-8.3,0-15-6.7-15-15V150h452V467z M482,120H30V45c0-8.3,6.7-15,15-15h422c8.3,0,15,6.7,15,15V120
			z"/>
	</g>
</g>
<g>
	<g>
		<circle class="st0" cx="75" cy="75" r="15"/>
	</g>
</g>
<g>
	<g>
		<circle class="st0" cx="135" cy="75" r="15"/>
	</g>
</g>
<g>
	<g>
		<circle class="st0" cx="195" cy="75" r="15"/>
	</g>
</g>
<g>
	<g>
		<path class="st0" d="M225,180H75c-8.3,0-15,6.7-15,15v122c0,8.3,6.7,15,15,15h150c8.3,0,15-6.7,15-15V195
			C240,186.7,233.3,180,225,180z M210,302H90v-92h120V302z"/>
	</g>
</g>
<g>
	<g>
		<path class="st0" d="M437,302H285c-8.3,0-15,6.7-15,15s6.7,15,15,15h152c8.3,0,15-6.7,15-15S445.3,302,437,302z"/>
	</g>
</g>
<g>
	<g>
		<path class="st0" d="M437,241H285c-8.3,0-15,6.7-15,15s6.7,15,15,15h152c8.3,0,15-6.7,15-15S445.3,241,437,241z"/>
	</g>
</g>
<g>
	<g>
		<path class="st0" d="M437,362H75c-8.3,0-15,6.7-15,15s6.7,15,15,15h362c8.3,0,15-6.7,15-15S445.3,362,437,362z"/>
	</g>
</g>
<g>
	<g>
		<path class="st0" d="M437,422H75c-8.3,0-15,6.7-15,15s6.7,15,15,15h362c8.3,0,15-6.7,15-15S445.3,422,437,422z"/>
	</g>
</g>
</svg>
