<?xml version="1.0" encoding="iso-8859-1"?>
<!-- Generator: Adobe Illustrator 19.0.0, SVG Export Plug-In . SVG Version: 6.00 Build 0)  -->
<svg xmlns="http://www.w3.org/2000/svg" xmlns:xlink="http://www.w3.org/1999/xlink" version="1.1" id="Capa_1" x="0px" y="0px" viewBox="0 0 483.3 483.3" style="enable-background:new 0 0 483.3 483.3;" xml:space="preserve" width="512px" height="512px">
<g>
	<g>
		<path d="M70.2,307.478c-8.6,0-15.6-7-15.6-15.6c0-8.6,7-15.6,15.6-15.6s15.6,7,15.6,15.6h15.6c0-14.5-10-26.6-23.4-30.1v-8.9H62.4    v8.9c-13.4,3.5-23.4,15.6-23.4,30.1c0,17.2,14,31.2,31.2,31.2c8.6,0,15.6,7,15.6,15.6c0,8.6-7,15.6-15.6,15.6s-15.6-7-15.6-15.6    H39c0,14.5,10,26.6,23.4,30.1v8.9H78v-8.9c13.4-3.5,23.4-15.6,23.4-30.1C101.4,321.478,87.4,307.478,70.2,307.478z" fill="#FFFFFF"/>
	</g>
</g>
<g>
	<g>
		<rect x="117" y="252.978" width="93.5" height="15.6" fill="#FFFFFF"/>
	</g>
</g>
<g>
	<g>
		<rect x="117" y="330.878" width="124.7" height="15.6" fill="#FFFFFF"/>
	</g>
</g>
<g>
	<g>
		<rect x="39" y="408.878" width="155.9" height="15.6" fill="#FFFFFF"/>
	</g>
</g>
<g>
	<g>
		<rect x="210.5" y="408.878" width="62.4" height="15.6" fill="#FFFFFF"/>
	</g>
</g>
<g>
	<g>
		<path d="M426.9,213.978l53.5-129c5.8-14.3,4.2-40.8-21.1-50.9l-28.8-11.9c-25.9-8.2-44.9,6.5-50.9,21.1l-70.8,170.8H0v249.4h483.3    v-249.5H426.9z M394,49.178c3.6-8.8,16.6-19.3,30.5-12.7l28.8,11.9c17.7,7.4,15.1,24.8,12.7,30.6l-8.9,21.6l-72-29.8L394,49.178z     M379,85.178l28.8,11.9l-32.8,79.2l14.4,6l32.8-79.2l28.8,11.9l-74.6,180l-72-29.8L379,85.178z M286.6,308.378l11.9-28.8l72,29.8    l-11.9,28.8L286.6,308.378z M347.1,350.378l-51.5,38.2l-9.4-63.4L347.1,350.378z M15.6,447.878v-218.3h286.7l-34,82.1l15.7,104.9    l85.2-63.1l51.3-123.9h47.3v218.3H15.6z" fill="#FFFFFF"/>
	</g>
</g>
<g>
</g>
<g>
</g>
<g>
</g>
<g>
</g>
<g>
</g>
<g>
</g>
<g>
</g>
<g>
</g>
<g>
</g>
<g>
</g>
<g>
</g>
<g>
</g>
<g>
</g>
<g>
</g>
<g>
</g>
</svg>
