<?xml version="1.0" encoding="utf-8"?>
<!-- Generator: Adobe Illustrator 22.0.1, SVG Export Plug-In . SVG Version: 6.00 Build 0)  -->
<svg version="1.1" id="Layer_1" xmlns="http://www.w3.org/2000/svg" xmlns:xlink="http://www.w3.org/1999/xlink" x="0px" y="0px"
	 viewBox="0 0 512 512" style="enable-background:new 0 0 512 512;" xml:space="preserve">
<style type="text/css">
	.st0{fill:#E4007D;stroke:#E4007D;stroke-miterlimit:10;}
</style>
<g>
	<g>
		<g>
			<path class="st0" d="M415.3,53.6c12,4.3,21.7,14,26,26c1.2,3.5,4.5,5.7,8,5.7c0.9,0,1.9-0.2,2.8-0.5c4.4-1.6,6.8-6.5,5.2-10.9
				c-6-17.1-19.3-30.3-36.3-36.4c-4.4-1.6-9.3,0.8-10.9,5.2C408.6,47.2,410.9,52.1,415.3,53.6z"/>
			<path class="st0" d="M337.2,289.1c1.3,0.7,2.7,1,4.1,1c1.4,0,2.8-0.4,4.1-1c97.1-53,149.5-140.1,149.5-195.2
				c0-51.8-42.1-93.9-93.9-93.9c-36.4,0-69.8,21.3-85.1,54.3c-2,4.3-0.1,9.4,4.1,11.3c4.3,2,9.4,0.1,11.3-4.1
				c12.6-27,39.9-44.4,69.7-44.4c42.4,0,76.8,34.4,76.8,76.8c0,50.1-51,129.7-136.5,178c-85.6-48.3-136.5-127.9-136.5-178
				c0-42.4,34.5-76.8,76.8-76.8c10.7,0,21,2.1,30.8,6.4c4.3,1.9,9.3-0.1,11.2-4.4c1.9-4.3-0.1-9.3-4.4-11.2
				C307.3,2.6,294.7,0,281.6,0c-51.8,0-93.9,42.1-93.9,93.9C187.7,149,240.1,236.1,337.2,289.1z"/>
			<path class="st0" d="M110.9,324.3h68.3c9.9,0,26.9,12.7,41.8,23.9c18.7,14,36.4,27.3,52.1,27.3h51.2c13,0,19.4,5.9,19.6,6
				c1.7,1.7,3.8,2.5,6,2.5c2.2,0,4.4-0.8,6-2.5c3.3-3.3,3.3-8.7,0-12.1c-1.1-1.1-11.6-11-31.6-11h-51.2c-10,0-26.9-12.7-41.8-23.9
				c-18.7-14-36.4-27.3-52.1-27.3h-68.3c-4.7,0-8.5,3.8-8.5,8.5C102.4,320.4,106.2,324.3,110.9,324.3z"/>
			<path class="st0" d="M42.7,456.5c0-7.1-5.7-12.8-12.8-12.8s-12.8,5.7-12.8,12.8s5.7,12.8,12.8,12.8S42.7,463.6,42.7,456.5z"/>
			<path class="st0" d="M507.4,358.4c-4.6-7.9-11.9-13.5-20.7-15.9c-8.8-2.4-18-1.2-25.4,3.1l-98.2,47.8
				c-15.3,7.6-30.7,7.6-64.4,7.6c-33,0-83.4-8.3-83.9-8.4c-4.7-0.8-9,2.4-9.8,7c-0.8,4.7,2.4,9,7,9.8c2.1,0.4,52.3,8.7,86.7,8.7
				c35.4,0,53.2,0,72-9.4l98.7-48c8.1-4.7,18.6-1.9,23.3,6.2c2.3,4,2.9,8.5,1.7,13c-1.2,4.4-4,8.1-8.2,10.5l-115.4,71.8
				c-0.2,0.2-24.9,15.7-80.6,15.7c-48.4,0-123.1-41.2-124.2-41.8c-0.8-0.4-19.3-9.4-55-9.4c-4.7,0-8.5,3.8-8.5,8.5s3.8,8.5,8.5,8.5
				c31,0,47,7.5,47.1,7.5c3.2,1.8,79.3,43.7,132.1,43.7c61.6,0,88.9-17.7,89.8-18.4l115-71.6c7.9-4.6,13.5-11.9,15.9-20.7
				C513.2,375.5,512,366.3,507.4,358.4z"/>
			<path class="st0" d="M59.7,273.1H8.5c-4.7,0-8.5,3.8-8.5,8.5s3.8,8.5,8.5,8.5h51.2c4.7,0,8.5,3.8,8.5,8.5v187.7
				c0,4.7-3.8,8.5-8.5,8.5H8.5c-4.7,0-8.5,3.8-8.5,8.5s3.8,8.5,8.5,8.5h51.2c14.1,0,25.6-11.5,25.6-25.6V298.7
				C85.3,284.6,73.8,273.1,59.7,273.1z"/>
		</g>
	</g>
</g>
</svg>
