<?xml version="1.0" encoding="utf-8"?>
<!-- Generator: Adobe Illustrator 22.0.1, SVG Export Plug-In . SVG Version: 6.00 Build 0)  -->
<svg version="1.1" id="Calque_1" xmlns="http://www.w3.org/2000/svg" xmlns:xlink="http://www.w3.org/1999/xlink" x="0px" y="0px"
	 viewBox="0 0 48 48" style="enable-background:new 0 0 48 48;" xml:space="preserve">
<style type="text/css">
	.st0{fill:#FFFFFF;}
	.st1{fill:#E4007D;}
</style>
<g>
	<rect x="20.8" y="7.5" class="st0" width="19.3" height="35.9"/>
	<g id="surface1">
		<path class="st1" d="M39,0H9C4,0,0,4,0,9v30c0,5,4,9,9,9h30c5,0,9-4,9-9V9C48,4,44,0,39,0z M37.8,25.9h-4.5v16.6h-7.5V25.9h-2.9
			v-5.6h2.9v-3.6c0-4.7,1.9-7.4,7.5-7.4h5.6v5.6h-3.2c-2.1,0-2.3,0.8-2.3,2.3l0,3.1h5.1L37.8,25.9z"/>
	</g>
</g>
</svg>
