<?xml version="1.0" encoding="UTF-8"?>
<svg xmlns="http://www.w3.org/2000/svg" xmlns:xlink="http://www.w3.org/1999/xlink" viewBox="0 0 24 24" version="1.1" fill="#ffffff" width="48px" height="48px">
<g id="surface1" fill="#ffffff">
<path style=" " d="M 7.5 4 C 6.292969 4 5.296875 4.859375 5.0625 6 L 4.46875 6 C 3.601563 6 2.828125 6.546875 2.5625 7.375 L 0.40625 14.0625 C 0.152344 14.660156 0 15.3125 0 16 C 0 18.75 2.25 21 5 21 C 7.035156 21 8.785156 19.757813 9.5625 18 L 14.4375 18 C 15.214844 19.757813 16.964844 21 19 21 C 21.75 21 24 18.75 24 16 C 24 15.3125 23.847656 14.660156 23.59375 14.0625 L 21.375 7.375 C 21.105469 6.554688 20.332031 6 19.46875 6 L 18.9375 6 C 18.703125 4.859375 17.707031 4 16.5 4 C 15.292969 4 14.296875 4.859375 14.0625 6 L 9.9375 6 C 9.703125 4.859375 8.707031 4 7.5 4 Z M 5 13 C 6.667969 13 8 14.332031 8 16 C 8 17.667969 6.667969 19 5 19 C 3.332031 19 2 17.667969 2 16 C 2 14.332031 3.332031 13 5 13 Z M 19 13 C 20.667969 13 22 14.332031 22 16 C 22 17.667969 20.667969 19 19 19 C 17.332031 19 16 17.667969 16 16 C 16 14.332031 17.332031 13 19 13 Z M 12 14 C 12.550781 14 13 14.449219 13 15 C 13 15.550781 12.550781 16 12 16 C 11.449219 16 11 15.550781 11 15 C 11 14.449219 11.449219 14 12 14 Z " fill="#ffffff"/>
</g>
</svg>
