<svg id="Calque_2" data-name="Calque 2" xmlns="http://www.w3.org/2000/svg" viewBox="0 0 492.51 467.47"><defs><style>.cls-1{fill:#54c0ef;}.cls-2{fill:#e4007d;}.cls-3{fill:#4152a0;}.cls-4{fill:#1d1d1b;}.cls-5{fill:#fff;}.cls-6{fill:#7c348a;}</style></defs><title>logosans texte</title><path class="cls-1" d="M405.06,216.89c5.49,1.7,72.55,30.86,63.25,35-59.07,26.24-215.75,15.5-312.5-145.25,0,0,65.25,67.25,169.61,89.77C325.42,196.41,368.06,205.39,405.06,216.89Z" transform="translate(-155.81 -63.91)"/><path class="cls-2" d="M197.32,208s170.54,140.87,244,43.5c6-7.92-139-23-139-23S232.82,223,197.32,208Z" transform="translate(-155.81 -63.91)"/><path class="cls-3" d="M312.5,300.3s121.21,32.36,127-24C441.8,253.8,312.5,300.3,312.5,300.3Z" transform="translate(-155.81 -63.91)"/><path class="cls-1" d="M379.8,449.37s-6.18-130.19,73-163.5c7.14-3-15.5,81.72-41.5,111.5C411.3,397.37,382.8,425.87,379.8,449.37Z" transform="translate(-155.81 -63.91)"/><path class="cls-3" d="M349,531.37s11.77-174.59,136.5-230.5c14.5-6.5-26.5,85.5-66.76,115.08C418.74,416,371.5,458.37,349,531.37Z" transform="translate(-155.81 -63.91)"/><path class="cls-3" d="M441.5,219.37s15.75-5.75,21.75-22.25a147,147,0,0,0,7.5-32.25c1.5-4.07,4.7-66.15,67-57.25,3.5.5-14.7-4-21.49-4.57,0,0-49.76-9.18-55.51,50.07C455.17,210.58,454,208.62,441.5,219.37Z" transform="translate(-155.81 -63.91)"/><circle class="cls-4" cx="352.54" cy="63.42" r="8.75"/><circle class="cls-5" cx="349.16" cy="61.2" r="3.37"/><path class="cls-6" d="M465.85,291.69s8-18.13,10.25-37.75c2-17.75,5.25-50,5.25-50,1.63-6.47,3.55-49.94,44.25-72.55,17.38-9.66,18.5-8.2,18.5-8.2s-11.75,11.25-16,23.75-6.25,47-6.25,47,1.32,39.45-24.25,69.75C473.85,291.83,465.85,291.69,465.85,291.69Z" transform="translate(-155.81 -63.91)"/><path class="cls-2" d="M481.8,357.67c-.29.63,27.21-27.87,40.06-64,9.49-26.69,7.76-29.41,11.14-44.8,2-9.31,3.49-25.92,3.2-51.2,0-27.7-7.67-42.84,19.08-78.09C578.57,88.88,615,76.07,647,64.47c9.4-3.4-33.1,8.65-78.32,33.35-30.49,16.65-49.81,40.65-62.58,69.78-16.34,37.28-9.18,67.71-9.18,67.71s3.43,43.12,2.2,50.49C497.8,293.67,500.6,334.47,481.8,357.67Z" transform="translate(-155.81 -63.91)"/></svg>