<?xml version="1.0" encoding="utf-8"?>
<!-- Generator: Adobe Illustrator 22.0.1, SVG Export Plug-In . SVG Version: 6.00 Build 0)  -->
<svg version="1.1" id="Capa_1" xmlns="http://www.w3.org/2000/svg" xmlns:xlink="http://www.w3.org/1999/xlink" x="0px" y="0px"
	 viewBox="0 0 512 512" style="enable-background:new 0 0 512 512;" xml:space="preserve">
<style type="text/css">
	.st0{fill:#E4007D;}
</style>
<g>
	<path class="st0" d="M500.6,444.9L395.1,339.4c25.4-36.7,38.2-77.6,38.2-122.8c0-29.3-5.7-57.4-17.1-84.2
		c-11.4-26.8-26.8-49.8-46.2-69.2c-19.4-19.4-42.5-34.8-69.2-46.2C274,5.7,246,0,216.6,0c-29.3,0-57.4,5.7-84.2,17.1
		c-26.8,11.4-49.8,26.8-69.2,46.2c-19.4,19.4-34.8,42.5-46.2,69.2C5.7,159.2,0,187.3,0,216.6C0,246,5.7,274,17.1,300.8
		c11.4,26.8,26.8,49.8,46.2,69.2c19.4,19.4,42.5,34.8,69.2,46.2c26.8,11.4,54.8,17.1,84.2,17.1c45.1,0,86.1-12.7,122.8-38.2
		l105.5,105.2c7.4,7.8,16.6,11.7,27.7,11.7c10.7,0,19.9-3.9,27.7-11.7c7.8-7.8,11.7-17,11.7-27.7C512,461.8,508.2,452.5,500.6,444.9
		z M314,314c-27,27-59.4,40.5-97.4,40.5c-37.9,0-70.4-13.5-97.4-40.5c-27-27-40.5-59.4-40.5-97.4c0-37.9,13.5-70.4,40.5-97.4
		c27-27,59.4-40.5,97.4-40.5c37.9,0,70.4,13.5,97.4,40.5c27,27,40.5,59.4,40.5,97.4C354.5,254.6,341,287,314,314z"/>
</g>
</svg>
