<?xml version="1.0" encoding="utf-8"?>
<!-- Generator: Adobe Illustrator 22.0.1, SVG Export Plug-In . SVG Version: 6.00 Build 0)  -->
<svg version="1.1" id="Calque_1" xmlns="http://www.w3.org/2000/svg" xmlns:xlink="http://www.w3.org/1999/xlink" x="0px" y="0px"
	 viewBox="0 0 48 48" style="enable-background:new 0 0 48 48;" xml:space="preserve">
<style type="text/css">
	.st0{fill:#FFFFFF;}
	.st1{fill:#E4007D;}
</style>
<g>
	<rect x="6.1" y="5.4" class="st0" width="35.5" height="32.4"/>
	<g id="surface1">
		<path class="st1" d="M43.2,0H4.8C2.2,0,0,2.2,0,4.8v38.4C0,45.8,2.2,48,4.8,48h38.4c2.6,0,4.8-2.2,4.8-4.8V4.8
			C48,2.2,45.8,0,43.2,0z M37.4,16.3c0,0.2,0,0.5,0,1c0,9.1-7,19.7-19.7,19.7c-3.8,0-7.4-1.2-10.6-3.1c0.5,0,1.2,0,1.7,0
			c3.1,0,6.2-1.2,8.6-2.9c-3.1,0-5.5-2.2-6.5-4.8c0.5,0,1,0.2,1.2,0.2c0.7,0,1.2,0,1.9-0.2c-3.1-0.7-5.5-3.4-5.5-6.7
			c1,0.5,1.9,0.7,3.1,1c-1.9-1.7-3.1-3.6-3.1-6c0-1.2,0.2-2.4,1-3.4c3.4,4.1,8.4,7,14.2,7.2c0-0.5-0.2-1-0.2-1.7c0-3.8,3.1-7,7-7
			c1.9,0,3.8,0.7,5,2.2c1.7-0.2,3.1-1,4.3-1.7c-0.5,1.7-1.7,2.9-3.1,3.8c1.4-0.2,2.6-0.5,4.1-1.2C39.8,14.2,38.6,15.4,37.4,16.3z"/>
	</g>
</g>
</svg>
