<?xml version="1.0" encoding="UTF-8"?>
<svg xmlns="http://www.w3.org/2000/svg" xmlns:xlink="http://www.w3.org/1999/xlink" viewBox="0 0 24 24" version="1.1" fill="#ffffff" width="48px" height="48px">
<g id="surface1" fill="#ffffff">
<path style=" " d="M 12 4 C 9.570313 4 7.824219 5.984375 8 8.40625 C 8.039063 8.949219 8.273438 10.019531 8.3125 10.5625 C 8.3125 10.570313 8.3125 10.585938 8.3125 10.59375 C 8.625 12.109375 10.351563 13 12 13 C 13.648438 13 15.074219 12.015625 15.6875 10.59375 C 15.691406 10.585938 15.6875 10.570313 15.6875 10.5625 C 15.835938 10.039063 15.960938 8.949219 16 8.40625 C 16.117188 6.800781 15.390625 5.207031 13.40625 4.8125 L 13 4 Z M 12 15 C 5.921875 15 4 19 4 19 L 4 21 L 20 21 L 20 19 C 20 19 18.078125 15 12 15 Z " fill="#ffffff"/>
</g>
</svg>
