<?xml version="1.0" encoding="utf-8"?>
<!-- Generator: Adobe Illustrator 22.0.1, SVG Export Plug-In . SVG Version: 6.00 Build 0)  -->
<svg version="1.1" id="Capa_1" xmlns="http://www.w3.org/2000/svg" xmlns:xlink="http://www.w3.org/1999/xlink" x="0px" y="0px"
	 viewBox="0 0 58 58" style="enable-background:new 0 0 58 58;" xml:space="preserve">
<style type="text/css">
	.st0{fill:#FFFFFF;stroke:#E4007D;stroke-miterlimit:10;}
	.st1{fill:#E4007D;}
</style>
<circle class="st0" cx="29" cy="29" r="29"/>
<path class="st1" d="M43.9,4.5c0.1,0,0.2-0.1,0.3-0.2C39.8,1.6,34.6,0,29,0c-6.1,0-11.8,1.9-16.5,5.2c0,0.1,0.1,0.2,0.1,0.3
	c2,4.3,4.5,11.5,8.9,13.2c2.1,0.8,4.1,0.5,6.1,1.5c0.2,0.1,0.5,0.3,0.7,0.5c1,1.5,0.4,3.7,1.4,4.2c0.8,0.4,1.3,1.3,0.9,2.1
	c-1.4,3.4-0.2,7.3,3.1,10c2.3,1.9,0.4,6.3-1.5,9.7c-0.7,1.2,0.5,2.6,1.9,2.2c2.1-0.7,3.8-1.8,5.8-3.6c2.9-2.5,3.5-5.2,6.4-7.4
	c0,0,0.1-0.1,0.1-0.1c0.7-2.2,3-6.9,0.7-8.1c-2.2-1.1-3-4.4-5.1-6.6c-0.2-0.3-0.6-0.4-0.9-0.4c-2.6-0.3-3.7-2.3-5.5-1
	c-1.3,1-2.8,0.4-3.2-1.2c-0.1-0.5-0.4-1-1.3-1.3c-0.7-0.2-1.1-1-0.8-1.7c0,0,0,0,0,0c0.3-0.9-1.6-0.8-2.6-0.6
	c-0.3,0,0.7-1.1,0.4-0.9c-1.2,0.7-2.7-0.5-2.6-1.9c0.1-1.4,0.3-1.4,2.8-1.6c2.6-1.2,3.9-0.3,3.8,2.7c1.6,0.2,2.2-0.5,1.7-2.1
	c-0.1-0.5,0-1,0.3-1.4C36.8,7.7,39.3,6.1,43.9,4.5z"/>
</svg>
